<svg xmlns="http://www.w3.org/2000/svg" viewBox="0 0 34 42.5" x="0px" y="0px"><g data-name="Layer 2"><path d="M2,9H32a1,1,0,0,0,0-2H2A1,1,0,0,0,2,9Z"/><path d="M32,16H2a1,1,0,0,0,0,2H32a1,1,0,0,0,0-2Z"/><path d="M32,25H2a1,1,0,0,0,0,2H32a1,1,0,0,0,0-2Z"/></g><text x="0" y="49" fill="#000000" font-size="5px" font-weight="bold" font-family="'Helvetica Neue', Helvetica, Arial-Unicode, Arial, Sans-serif">Created by firdaus husyaeni</text><text x="0" y="54" fill="#000000" font-size="5px" font-weight="bold" font-family="'Helvetica Neue', Helvetica, Arial-Unicode, Arial, Sans-serif">from the Noun Project</text></svg>